<svg xmlns="http://www.w3.org/2000/svg" xmlns:xlink="http://www.w3.org/1999/xlink" width="600" height="480" viewBox="0 0 600 480"><title>Gnuplot</title><desc>Produced by GNUPLOT 5.2 patchlevel 7</desc><g id="gnuplot_canvas"><rect width="600" height="480" x="0" y="0" fill="none"/><defs><circle id="gpDot" r=".5" stroke="currentColor" stroke-width=".5"/><path id="gpPt0" stroke="currentColor" stroke-width=".222" d="M-1,0 h2 M0,-1 v2"/><path id="gpPt1" stroke="currentColor" stroke-width=".222" d="M-1,-1 L1,1 M1,-1 L-1,1"/><path id="gpPt2" stroke="currentColor" stroke-width=".222" d="M-1,0 L1,0 M0,-1 L0,1 M-1,-1 L1,1 M-1,1 L1,-1"/><rect id="gpPt3" width="2" height="2" x="-1" y="-1" stroke="currentColor" stroke-width=".222"/><rect id="gpPt4" width="2" height="2" x="-1" y="-1" fill="currentColor" stroke="currentColor" stroke-width=".222"/><circle id="gpPt5" cx="0" cy="0" r="1" stroke="currentColor" stroke-width=".222"/><use id="gpPt6" fill="currentColor" stroke="none" xlink:href="#gpPt5"/><path id="gpPt7" stroke="currentColor" stroke-width=".222" d="M0,-1.33 L-1.33,0.67 L1.33,0.67 z"/><use id="gpPt8" fill="currentColor" stroke="none" xlink:href="#gpPt7"/><use id="gpPt9" stroke="currentColor" transform="rotate(180)" xlink:href="#gpPt7"/><use id="gpPt10" fill="currentColor" stroke="none" xlink:href="#gpPt9"/><use id="gpPt11" stroke="currentColor" transform="rotate(45)" xlink:href="#gpPt3"/><use id="gpPt12" fill="currentColor" stroke="none" xlink:href="#gpPt11"/><path id="gpPt13" stroke="currentColor" stroke-width=".222" d="M0,1.330 L1.265,0.411 L0.782,-1.067 L-0.782,-1.076 L-1.265,0.411 z"/><use id="gpPt14" fill="currentColor" stroke="none" xlink:href="#gpPt13"/><filter id="textbox" width="1" height="1" x="0" y="0" filterUnits="objectBoundingBox"><feFlood flood-color="#fff" flood-opacity="1" result="bgnd"/><feComposite in="SourceGraphic" in2="bgnd" operator="atop"/></filter><filter id="greybox" width="1" height="1" x="0" y="0" filterUnits="objectBoundingBox"><feFlood flood-color="#d3d3d3" flood-opacity="1" result="grey"/><feComposite in="SourceGraphic" in2="grey" operator="atop"/></filter></defs><g fill="none" stroke="currentColor" stroke-linecap="butt" stroke-linejoin="miter" stroke-width="1" color="#000"><path stroke="#000" d="M55.3,444.0 L64.3,444.0 M575.0,444.0 L566.0,444.0"/><g fill="#000" stroke="none" font-family="Arial" font-size="12" text-anchor="end"><text transform="translate(47.0,447.9)"><tspan font-family="Arial">0</tspan></text></g></g><g fill="none" stroke="currentColor" stroke-linecap="butt" stroke-linejoin="miter" stroke-width="1" color="#000"><path stroke="#000" d="M55.3,383.2 L64.3,383.2 M575.0,383.2 L566.0,383.2"/><g fill="#000" stroke="none" font-family="Arial" font-size="12" text-anchor="end"><text transform="translate(47.0,387.1)"><tspan font-family="Arial">1</tspan></text></g></g><g fill="none" stroke="currentColor" stroke-linecap="butt" stroke-linejoin="miter" stroke-width="1" color="#000"><path stroke="#000" d="M55.3,322.3 L64.3,322.3 M575.0,322.3 L566.0,322.3"/><g fill="#000" stroke="none" font-family="Arial" font-size="12" text-anchor="end"><text transform="translate(47.0,326.2)"><tspan font-family="Arial">2</tspan></text></g></g><g fill="none" stroke="currentColor" stroke-linecap="butt" stroke-linejoin="miter" stroke-width="1" color="#000"><path stroke="#000" d="M55.3,261.5 L64.3,261.5 M575.0,261.5 L566.0,261.5"/><g fill="#000" stroke="none" font-family="Arial" font-size="12" text-anchor="end"><text transform="translate(47.0,265.4)"><tspan font-family="Arial">3</tspan></text></g></g><g fill="none" stroke="currentColor" stroke-linecap="butt" stroke-linejoin="miter" stroke-width="1" color="#000"><path stroke="#000" d="M55.3,200.6 L64.3,200.6 M575.0,200.6 L566.0,200.6"/><g fill="#000" stroke="none" font-family="Arial" font-size="12" text-anchor="end"><text transform="translate(47.0,204.5)"><tspan font-family="Arial">4</tspan></text></g></g><g fill="none" stroke="currentColor" stroke-linecap="butt" stroke-linejoin="miter" stroke-width="1" color="#000"><path stroke="#000" d="M55.3,139.8 L64.3,139.8 M575.0,139.8 L566.0,139.8"/><g fill="#000" stroke="none" font-family="Arial" font-size="12" text-anchor="end"><text transform="translate(47.0,143.7)"><tspan font-family="Arial">5</tspan></text></g></g><g fill="none" stroke="currentColor" stroke-linecap="butt" stroke-linejoin="miter" stroke-width="1" color="#000"><path stroke="#000" d="M55.3,78.9 L64.3,78.9 M575.0,78.9 L566.0,78.9"/><g fill="#000" stroke="none" font-family="Arial" font-size="12" text-anchor="end"><text transform="translate(47.0,82.8)"><tspan font-family="Arial">6</tspan></text></g></g><g fill="none" stroke="currentColor" stroke-linecap="butt" stroke-linejoin="miter" stroke-width="1" color="#000"><path stroke="#000" d="M55.3,18.1 L64.3,18.1 M575.0,18.1 L566.0,18.1"/><g fill="#000" stroke="none" font-family="Arial" font-size="12" text-anchor="end"><text transform="translate(47.0,22.0)"><tspan font-family="Arial">7</tspan></text></g></g><g fill="none" stroke="currentColor" stroke-linecap="butt" stroke-linejoin="miter" stroke-width="1" color="#000"><path stroke="#000" d="M84.2,444.0 L84.2,435.0 M84.2,18.1 L84.2,27.1"/><g fill="#000" stroke="none" font-family="Arial" font-size="12" text-anchor="middle"><text transform="translate(84.2,465.9)"><tspan font-family="Arial">json</tspan></text></g></g><g fill="none" stroke="currentColor" stroke-linecap="butt" stroke-linejoin="miter" stroke-width="1" color="#000"><path stroke="#000" d="M141.9,444.0 L141.9,435.0 M141.9,18.1 L141.9,27.1"/><g fill="#000" stroke="none" font-family="Arial" font-size="12" text-anchor="middle"><text transform="translate(141.9,465.9)"><tspan font-family="Arial">cbor</tspan></text></g></g><g fill="none" stroke="currentColor" stroke-linecap="butt" stroke-linejoin="miter" stroke-width="1" color="#000"><path stroke="#000" d="M199.7,444.0 L199.7,435.0 M199.7,18.1 L199.7,27.1"/><g fill="#000" stroke="none" font-family="Arial" font-size="12" text-anchor="middle"><text transform="translate(199.7,465.9)"><tspan font-family="Arial">capnproto</tspan></text></g></g><g fill="none" stroke="currentColor" stroke-linecap="butt" stroke-linejoin="miter" stroke-width="1" color="#000"><path stroke="#000" d="M257.4,444.0 L257.4,435.0 M257.4,18.1 L257.4,27.1"/><g fill="#000" stroke="none" font-family="Arial" font-size="12" text-anchor="middle"><text transform="translate(257.4,465.9)"><tspan font-family="Arial">protobuf</tspan></text></g></g><g fill="none" stroke="currentColor" stroke-linecap="butt" stroke-linejoin="miter" stroke-width="1" color="#000"><path stroke="#000" d="M315.2,444.0 L315.2,435.0 M315.2,18.1 L315.2,27.1"/><g fill="#000" stroke="none" font-family="Arial" font-size="12" text-anchor="middle"><text transform="translate(315.2,465.9)"><tspan font-family="Arial">bincode</tspan></text></g></g><g fill="none" stroke="currentColor" stroke-linecap="butt" stroke-linejoin="miter" stroke-width="1" color="#000"><path stroke="#000" d="M372.9,444.0 L372.9,435.0 M372.9,18.1 L372.9,27.1"/><g fill="#000" stroke="none" font-family="Arial" font-size="12" text-anchor="middle"><text transform="translate(372.9,465.9)"><tspan font-family="Arial">thrift</tspan></text></g></g><g fill="none" stroke="currentColor" stroke-linecap="butt" stroke-linejoin="miter" stroke-width="1" color="#000"><path stroke="#000" d="M430.6,444.0 L430.6,435.0 M430.6,18.1 L430.6,27.1"/><g fill="#000" stroke="none" font-family="Arial" font-size="12" text-anchor="middle"><text transform="translate(430.6,465.9)"><tspan font-family="Arial">avro</tspan></text></g></g><g fill="none" stroke="currentColor" stroke-linecap="butt" stroke-linejoin="miter" stroke-width="1" color="#000"><path stroke="#000" d="M488.4,444.0 L488.4,435.0 M488.4,18.1 L488.4,27.1"/><g fill="#000" stroke="none" font-family="Arial" font-size="12" text-anchor="middle"><text transform="translate(488.4,465.9)"><tspan font-family="Arial">flatbuffers</tspan></text></g></g><g fill="none" stroke="currentColor" stroke-linecap="butt" stroke-linejoin="miter" stroke-width="1" color="#000"><path stroke="#000" d="M546.1,444.0 L546.1,435.0 M546.1,18.1 L546.1,27.1"/><g fill="#000" stroke="none" font-family="Arial" font-size="12" text-anchor="middle"><text transform="translate(546.1,465.9)"><tspan font-family="Arial">msgpack</tspan></text></g></g><g fill="none" stroke="currentColor" stroke-linecap="butt" stroke-linejoin="miter" stroke-width="1" color="#000"><path stroke="#000" d="M55.3,18.1 L55.3,444.0 L575.0,444.0 L575.0,18.1 L55.3,18.1 Z"/></g><g fill="none" stroke="currentColor" stroke-linecap="butt" stroke-linejoin="miter" stroke-width="1" color="#000"><g fill="#000" stroke="none" font-family="Arial" font-size="12" text-anchor="middle"><text transform="translate(25.3,231.1) rotate(270)"><tspan font-family="Arial">GiB/s</tspan></text></g></g><g id="gnuplot_plot_1"><title>&quot;payload_512k.data&quot; using 1:3:xtic(2)</title><g fill="none" stroke="currentColor" stroke-linecap="butt" stroke-linejoin="miter" stroke-width="1" color="#000"><g fill="#000" stroke="none" font-family="Arial" font-size="12" text-anchor="end"><text transform="translate(507.9,40.0)">&quot;payload_512k.data&quot; using 1:3:xtic(2)</text></g></g><g fill="none" stroke="currentColor" stroke-linecap="butt" stroke-linejoin="miter" stroke-width="1" color="#000"><g stroke="none" shape-rendering="crispEdges"><polygon fill="#9400D3" points="516.2 40.6 558.4 40.6 558.4 31.6 516.2 31.6"/></g><path stroke="#9400D3" d="M516.2,40.6 L558.4,40.6 L558.4,31.6 L516.2,31.6 L516.2,40.6 Z"/></g><g fill="none" stroke="currentColor" stroke-linecap="butt" stroke-linejoin="miter" stroke-width="1" color="#000"><g stroke="none" shape-rendering="crispEdges"><polygon fill="#9400D3" points="69.7 444 98.7 444 98.7 441.8 69.7 441.8"/></g><path stroke="#9400D3" d="M69.7,444.0 L69.7,441.9 L98.6,441.9 L98.6,444.0 L69.7,444.0 Z"/><g stroke="none" shape-rendering="crispEdges"><polygon fill="#9400D3" points="127.5 444 156.5 444 156.5 355.3 127.5 355.3"/></g><path stroke="#9400D3" d="M127.5,444.0 L127.5,355.4 L156.4,355.4 L156.4,444.0 L127.5,444.0 Z"/><g stroke="none" shape-rendering="crispEdges"><polygon fill="#9400D3" points="185.2 444 214.2 444 214.2 179.8 185.2 179.8"/></g><path stroke="#9400D3" d="M185.2,444.0 L185.2,179.9 L214.1,179.9 L214.1,444.0 L185.2,444.0 Z"/><g stroke="none" shape-rendering="crispEdges"><polygon fill="#9400D3" points="243 444 271.9 444 271.9 18.9 243 18.9"/></g><path stroke="#9400D3" d="M243.0,444.0 L243.0,19.0 L271.8,19.0 L271.8,444.0 L243.0,444.0 Z"/><g stroke="none" shape-rendering="crispEdges"><polygon fill="#9400D3" points="300.7 444 329.7 444 329.7 30.6 300.7 30.6"/></g><path stroke="#9400D3" d="M300.7,444.0 L300.7,30.7 L329.6,30.7 L329.6,444.0 L300.7,444.0 Z"/><g stroke="none" shape-rendering="crispEdges"><polygon fill="#9400D3" points="358.5 444 387.4 444 387.4 72.2 358.5 72.2"/></g><path stroke="#9400D3" d="M358.5,444.0 L358.5,72.3 L387.3,72.3 L387.3,444.0 L358.5,444.0 Z"/><g stroke="none" shape-rendering="crispEdges"><polygon fill="#9400D3" points="416.2 444 445.2 444 445.2 318.1 416.2 318.1"/></g><path stroke="#9400D3" d="M416.2,444.0 L416.2,318.2 L445.1,318.2 L445.1,444.0 L416.2,444.0 Z"/><g stroke="none" shape-rendering="crispEdges"><polygon fill="#9400D3" points="473.9 444 502.9 444 502.9 433.2 473.9 433.2"/></g><path stroke="#9400D3" d="M473.9,444.0 L473.9,433.3 L502.8,433.3 L502.8,444.0 L473.9,444.0 Z"/><g stroke="none" shape-rendering="crispEdges"><polygon fill="#9400D3" points="531.7 444 560.7 444 560.7 130 531.7 130"/></g><path stroke="#9400D3" d="M531.7,444.0 L531.7,130.1 L560.6,130.1 L560.6,444.0 L531.7,444.0 Z"/></g></g><g fill="none" stroke="currentColor" stroke-linecap="butt" stroke-linejoin="miter" stroke-width="1" color="#000"><path stroke="#000" d="M55.3,18.1 L55.3,444.0 L575.0,444.0 L575.0,18.1 L55.3,18.1 Z"/></g></g></svg>