<svg xmlns="http://www.w3.org/2000/svg" xmlns:xlink="http://www.w3.org/1999/xlink" width="600" height="480" viewBox="0 0 600 480"><title>Gnuplot</title><desc>Produced by GNUPLOT 5.2 patchlevel 7</desc><g id="gnuplot_canvas"><rect width="600" height="480" x="0" y="0" fill="none"/><defs><circle id="gpDot" r=".5" stroke="currentColor" stroke-width=".5"/><path id="gpPt0" stroke="currentColor" stroke-width=".222" d="M-1,0 h2 M0,-1 v2"/><path id="gpPt1" stroke="currentColor" stroke-width=".222" d="M-1,-1 L1,1 M1,-1 L-1,1"/><path id="gpPt2" stroke="currentColor" stroke-width=".222" d="M-1,0 L1,0 M0,-1 L0,1 M-1,-1 L1,1 M-1,1 L1,-1"/><rect id="gpPt3" width="2" height="2" x="-1" y="-1" stroke="currentColor" stroke-width=".222"/><rect id="gpPt4" width="2" height="2" x="-1" y="-1" fill="currentColor" stroke="currentColor" stroke-width=".222"/><circle id="gpPt5" cx="0" cy="0" r="1" stroke="currentColor" stroke-width=".222"/><use id="gpPt6" fill="currentColor" stroke="none" xlink:href="#gpPt5"/><path id="gpPt7" stroke="currentColor" stroke-width=".222" d="M0,-1.33 L-1.33,0.67 L1.33,0.67 z"/><use id="gpPt8" fill="currentColor" stroke="none" xlink:href="#gpPt7"/><use id="gpPt9" stroke="currentColor" transform="rotate(180)" xlink:href="#gpPt7"/><use id="gpPt10" fill="currentColor" stroke="none" xlink:href="#gpPt9"/><use id="gpPt11" stroke="currentColor" transform="rotate(45)" xlink:href="#gpPt3"/><use id="gpPt12" fill="currentColor" stroke="none" xlink:href="#gpPt11"/><path id="gpPt13" stroke="currentColor" stroke-width=".222" d="M0,1.330 L1.265,0.411 L0.782,-1.067 L-0.782,-1.076 L-1.265,0.411 z"/><use id="gpPt14" fill="currentColor" stroke="none" xlink:href="#gpPt13"/><filter id="textbox" width="1" height="1" x="0" y="0" filterUnits="objectBoundingBox"><feFlood flood-color="#fff" flood-opacity="1" result="bgnd"/><feComposite in="SourceGraphic" in2="bgnd" operator="atop"/></filter><filter id="greybox" width="1" height="1" x="0" y="0" filterUnits="objectBoundingBox"><feFlood flood-color="#d3d3d3" flood-opacity="1" result="grey"/><feComposite in="SourceGraphic" in2="grey" operator="atop"/></filter></defs><g fill="none" stroke="currentColor" stroke-linecap="butt" stroke-linejoin="miter" stroke-width="1" color="#000"><path stroke="#000" d="M71.9,444.0 L80.9,444.0 M575.0,444.0 L566.0,444.0"/><g fill="#000" stroke="none" font-family="Arial" font-size="12" text-anchor="end"><text transform="translate(63.6,447.9)"><tspan font-family="Arial">0</tspan></text></g></g><g fill="none" stroke="currentColor" stroke-linecap="butt" stroke-linejoin="miter" stroke-width="1" color="#000"><path stroke="#000" d="M71.9,373.0 L80.9,373.0 M575.0,373.0 L566.0,373.0"/><g fill="#000" stroke="none" font-family="Arial" font-size="12" text-anchor="end"><text transform="translate(63.6,376.9)"><tspan font-family="Arial">50</tspan></text></g></g><g fill="none" stroke="currentColor" stroke-linecap="butt" stroke-linejoin="miter" stroke-width="1" color="#000"><path stroke="#000" d="M71.9,302.0 L80.9,302.0 M575.0,302.0 L566.0,302.0"/><g fill="#000" stroke="none" font-family="Arial" font-size="12" text-anchor="end"><text transform="translate(63.6,305.9)"><tspan font-family="Arial">100</tspan></text></g></g><g fill="none" stroke="currentColor" stroke-linecap="butt" stroke-linejoin="miter" stroke-width="1" color="#000"><path stroke="#000" d="M71.9,231.0 L80.9,231.0 M575.0,231.0 L566.0,231.0"/><g fill="#000" stroke="none" font-family="Arial" font-size="12" text-anchor="end"><text transform="translate(63.6,234.9)"><tspan font-family="Arial">150</tspan></text></g></g><g fill="none" stroke="currentColor" stroke-linecap="butt" stroke-linejoin="miter" stroke-width="1" color="#000"><path stroke="#000" d="M71.9,160.1 L80.9,160.1 M575.0,160.1 L566.0,160.1"/><g fill="#000" stroke="none" font-family="Arial" font-size="12" text-anchor="end"><text transform="translate(63.6,164.0)"><tspan font-family="Arial">200</tspan></text></g></g><g fill="none" stroke="currentColor" stroke-linecap="butt" stroke-linejoin="miter" stroke-width="1" color="#000"><path stroke="#000" d="M71.9,89.1 L80.9,89.1 M575.0,89.1 L566.0,89.1"/><g fill="#000" stroke="none" font-family="Arial" font-size="12" text-anchor="end"><text transform="translate(63.6,93.0)"><tspan font-family="Arial">250</tspan></text></g></g><g fill="none" stroke="currentColor" stroke-linecap="butt" stroke-linejoin="miter" stroke-width="1" color="#000"><path stroke="#000" d="M71.9,18.1 L80.9,18.1 M575.0,18.1 L566.0,18.1"/><g fill="#000" stroke="none" font-family="Arial" font-size="12" text-anchor="end"><text transform="translate(63.6,22.0)"><tspan font-family="Arial">300</tspan></text></g></g><g fill="none" stroke="currentColor" stroke-linecap="butt" stroke-linejoin="miter" stroke-width="1" color="#000"><path stroke="#000" d="M99.9,444.0 L99.9,435.0 M99.9,18.1 L99.9,27.1"/><g fill="#000" stroke="none" font-family="Arial" font-size="12" text-anchor="middle"><text transform="translate(99.9,465.9)"><tspan font-family="Arial">json</tspan></text></g></g><g fill="none" stroke="currentColor" stroke-linecap="butt" stroke-linejoin="miter" stroke-width="1" color="#000"><path stroke="#000" d="M155.8,444.0 L155.8,435.0 M155.8,18.1 L155.8,27.1"/><g fill="#000" stroke="none" font-family="Arial" font-size="12" text-anchor="middle"><text transform="translate(155.8,465.9)"><tspan font-family="Arial">cbor</tspan></text></g></g><g fill="none" stroke="currentColor" stroke-linecap="butt" stroke-linejoin="miter" stroke-width="1" color="#000"><path stroke="#000" d="M211.7,444.0 L211.7,435.0 M211.7,18.1 L211.7,27.1"/><g fill="#000" stroke="none" font-family="Arial" font-size="12" text-anchor="middle"><text transform="translate(211.7,465.9)"><tspan font-family="Arial">capnproto</tspan></text></g></g><g fill="none" stroke="currentColor" stroke-linecap="butt" stroke-linejoin="miter" stroke-width="1" color="#000"><path stroke="#000" d="M267.6,444.0 L267.6,435.0 M267.6,18.1 L267.6,27.1"/><g fill="#000" stroke="none" font-family="Arial" font-size="12" text-anchor="middle"><text transform="translate(267.6,465.9)"><tspan font-family="Arial">protobuf</tspan></text></g></g><g fill="none" stroke="currentColor" stroke-linecap="butt" stroke-linejoin="miter" stroke-width="1" color="#000"><path stroke="#000" d="M323.5,444.0 L323.5,435.0 M323.5,18.1 L323.5,27.1"/><g fill="#000" stroke="none" font-family="Arial" font-size="12" text-anchor="middle"><text transform="translate(323.5,465.9)"><tspan font-family="Arial">bincode</tspan></text></g></g><g fill="none" stroke="currentColor" stroke-linecap="butt" stroke-linejoin="miter" stroke-width="1" color="#000"><path stroke="#000" d="M379.4,444.0 L379.4,435.0 M379.4,18.1 L379.4,27.1"/><g fill="#000" stroke="none" font-family="Arial" font-size="12" text-anchor="middle"><text transform="translate(379.4,465.9)"><tspan font-family="Arial">thrift</tspan></text></g></g><g fill="none" stroke="currentColor" stroke-linecap="butt" stroke-linejoin="miter" stroke-width="1" color="#000"><path stroke="#000" d="M435.3,444.0 L435.3,435.0 M435.3,18.1 L435.3,27.1"/><g fill="#000" stroke="none" font-family="Arial" font-size="12" text-anchor="middle"><text transform="translate(435.3,465.9)"><tspan font-family="Arial">avro</tspan></text></g></g><g fill="none" stroke="currentColor" stroke-linecap="butt" stroke-linejoin="miter" stroke-width="1" color="#000"><path stroke="#000" d="M491.2,444.0 L491.2,435.0 M491.2,18.1 L491.2,27.1"/><g fill="#000" stroke="none" font-family="Arial" font-size="12" text-anchor="middle"><text transform="translate(491.2,465.9)"><tspan font-family="Arial">flatbuffers</tspan></text></g></g><g fill="none" stroke="currentColor" stroke-linecap="butt" stroke-linejoin="miter" stroke-width="1" color="#000"><path stroke="#000" d="M547.1,444.0 L547.1,435.0 M547.1,18.1 L547.1,27.1"/><g fill="#000" stroke="none" font-family="Arial" font-size="12" text-anchor="middle"><text transform="translate(547.1,465.9)"><tspan font-family="Arial">msgpack</tspan></text></g></g><g fill="none" stroke="currentColor" stroke-linecap="butt" stroke-linejoin="miter" stroke-width="1" color="#000"><path stroke="#000" d="M71.9,18.1 L71.9,444.0 L575.0,444.0 L575.0,18.1 L71.9,18.1 Z"/></g><g fill="none" stroke="currentColor" stroke-linecap="butt" stroke-linejoin="miter" stroke-width="1" color="#000"><g fill="#000" stroke="none" font-family="Arial" font-size="12" text-anchor="middle"><text transform="translate(25.3,231.1) rotate(270)"><tspan font-family="Arial">MiB/s</tspan></text></g></g><g id="gnuplot_plot_1"><title>&quot;payload_128.data&quot; using 1:3:xtic(2)</title><g fill="none" stroke="currentColor" stroke-linecap="butt" stroke-linejoin="miter" stroke-width="1" color="#000"><g fill="#000" stroke="none" font-family="Arial" font-size="12" text-anchor="end"><text transform="translate(507.9,40.0)">&quot;payload_128.data&quot; using 1:3:xtic(2)</text></g></g><g fill="none" stroke="currentColor" stroke-linecap="butt" stroke-linejoin="miter" stroke-width="1" color="#000"><g stroke="none" shape-rendering="crispEdges"><polygon fill="#9400D3" points="516.2 40.6 558.4 40.6 558.4 31.6 516.2 31.6"/></g><path stroke="#9400D3" d="M516.2,40.6 L558.4,40.6 L558.4,31.6 L516.2,31.6 L516.2,40.6 Z"/></g><g fill="none" stroke="currentColor" stroke-linecap="butt" stroke-linejoin="miter" stroke-width="1" color="#000"><g stroke="none" shape-rendering="crispEdges"><polygon fill="#9400D3" points="85.9 444 113.9 444 113.9 403.5 85.9 403.5"/></g><path stroke="#9400D3" d="M85.9,444.0 L85.9,403.6 L113.8,403.6 L113.8,444.0 L85.9,444.0 Z"/><g stroke="none" shape-rendering="crispEdges"><polygon fill="#9400D3" points="141.8 444 169.8 444 169.8 286.3 141.8 286.3"/></g><path stroke="#9400D3" d="M141.8,444.0 L141.8,286.4 L169.7,286.4 L169.7,444.0 L141.8,444.0 Z"/><g stroke="none" shape-rendering="crispEdges"><polygon fill="#9400D3" points="197.7 444 225.7 444 225.7 183.5 197.7 183.5"/></g><path stroke="#9400D3" d="M197.7,444.0 L197.7,183.6 L225.6,183.6 L225.6,444.0 L197.7,444.0 Z"/><g stroke="none" shape-rendering="crispEdges"><polygon fill="#9400D3" points="253.6 444 281.6 444 281.6 75.6 253.6 75.6"/></g><path stroke="#9400D3" d="M253.6,444.0 L253.6,75.7 L281.5,75.7 L281.5,444.0 L253.6,444.0 Z"/><g stroke="none" shape-rendering="crispEdges"><polygon fill="#9400D3" points="309.5 444 337.5 444 337.5 79.4 309.5 79.4"/></g><path stroke="#9400D3" d="M309.5,444.0 L309.5,79.5 L337.4,79.5 L337.4,444.0 L309.5,444.0 Z"/><g stroke="none" shape-rendering="crispEdges"><polygon fill="#9400D3" points="365.4 444 393.4 444 393.4 288.1 365.4 288.1"/></g><path stroke="#9400D3" d="M365.4,444.0 L365.4,288.2 L393.3,288.2 L393.3,444.0 L365.4,444.0 Z"/><g stroke="none" shape-rendering="crispEdges"><polygon fill="#9400D3" points="421.3 444 449.3 444 449.3 441.2 421.3 441.2"/></g><path stroke="#9400D3" d="M421.3,444.0 L421.3,441.3 L449.2,441.3 L449.2,444.0 L421.3,444.0 Z"/><g stroke="none" shape-rendering="crispEdges"><polygon fill="#9400D3" points="477.2 444 505.2 444 505.2 174.4 477.2 174.4"/></g><path stroke="#9400D3" d="M477.2,444.0 L477.2,174.5 L505.1,174.5 L505.1,444.0 L477.2,444.0 Z"/><g stroke="none" shape-rendering="crispEdges"><polygon fill="#9400D3" points="533.1 444 561.1 444 561.1 158.9 533.1 158.9"/></g><path stroke="#9400D3" d="M533.1,444.0 L533.1,159.0 L561.0,159.0 L561.0,444.0 L533.1,444.0 Z"/></g></g><g fill="none" stroke="currentColor" stroke-linecap="butt" stroke-linejoin="miter" stroke-width="1" color="#000"><path stroke="#000" d="M71.9,18.1 L71.9,444.0 L575.0,444.0 L575.0,18.1 L71.9,18.1 Z"/></g></g></svg>